<mxfile host="65bd71144e">
    <diagram id="mqeJFt_gB5agtE3WYT-s" name="Page-1">
        <mxGraphModel dx="433" dy="286" grid="1" gridSize="10" guides="1" tooltips="1" connect="1" arrows="1" fold="1" page="1" pageScale="1" pageWidth="850" pageHeight="1100" math="0" shadow="0">
            <root>
                <mxCell id="0"/>
                <mxCell id="1" parent="0"/>
                <mxCell id="4" style="edgeStyle=none;html=1;entryX=0.5;entryY=0;entryDx=0;entryDy=0;" parent="1" source="2" target="3" edge="1">
                    <mxGeometry relative="1" as="geometry"/>
                </mxCell>
                <mxCell id="2" value="Start" style="rounded=1;whiteSpace=wrap;html=1;arcSize=50;" parent="1" vertex="1">
                    <mxGeometry x="200" y="40" width="80" height="40" as="geometry"/>
                </mxCell>
                <mxCell id="126" style="edgeStyle=none;html=1;entryX=0.5;entryY=0;entryDx=0;entryDy=0;" edge="1" parent="1" source="3" target="123">
                    <mxGeometry relative="1" as="geometry"/>
                </mxCell>
                <mxCell id="3" value="Grades Calculator" style="shape=parallelogram;perimeter=parallelogramPerimeter;whiteSpace=wrap;html=1;fixedSize=1;" parent="1" vertex="1">
                    <mxGeometry x="160" y="120" width="160" height="40" as="geometry"/>
                </mxCell>
                <mxCell id="8" style="edgeStyle=none;html=1;entryX=0.5;entryY=0;entryDx=0;entryDy=0;" parent="1" source="5" target="7" edge="1">
                    <mxGeometry relative="1" as="geometry"/>
                </mxCell>
                <mxCell id="5" value="int fil, eng, math, prog, pe;" style="shape=hexagon;perimeter=hexagonPerimeter2;whiteSpace=wrap;html=1;fixedSize=1;size=19.999999999999943;" parent="1" vertex="1">
                    <mxGeometry x="160" y="400" width="160" height="80" as="geometry"/>
                </mxCell>
                <mxCell id="10" style="edgeStyle=none;html=1;entryX=0.5;entryY=0;entryDx=0;entryDy=0;exitX=0.5;exitY=1;exitDx=0;exitDy=0;" parent="1" source="7" target="9" edge="1">
                    <mxGeometry relative="1" as="geometry">
                        <mxPoint x="240" y="580" as="sourcePoint"/>
                    </mxGeometry>
                </mxCell>
                <mxCell id="7" value="&quot;Enter &quot; + name + &quot;'s grades&quot;" style="shape=parallelogram;perimeter=parallelogramPerimeter;whiteSpace=wrap;html=1;fixedSize=1;" parent="1" vertex="1">
                    <mxGeometry x="120" y="520" width="240" height="40" as="geometry"/>
                </mxCell>
                <mxCell id="12" style="edgeStyle=none;html=1;entryX=0.5;entryY=0;entryDx=0;entryDy=0;" parent="1" source="9" target="11" edge="1">
                    <mxGeometry relative="1" as="geometry"/>
                </mxCell>
                <mxCell id="9" value="Fillipino:" style="shape=parallelogram;perimeter=parallelogramPerimeter;whiteSpace=wrap;html=1;fixedSize=1;" parent="1" vertex="1">
                    <mxGeometry x="160" y="640" width="160" height="40" as="geometry"/>
                </mxCell>
                <mxCell id="16" style="edgeStyle=none;html=1;" parent="1" source="11" target="15" edge="1">
                    <mxGeometry relative="1" as="geometry"/>
                </mxCell>
                <mxCell id="42" style="edgeStyle=none;html=1;entryX=0.5;entryY=0;entryDx=0;entryDy=0;" parent="1" source="11" target="34" edge="1">
                    <mxGeometry relative="1" as="geometry"/>
                </mxCell>
                <mxCell id="11" value="fill &amp;lt; 0&lt;br&gt;||&lt;br&gt;fill &amp;gt; 100" style="rhombus;whiteSpace=wrap;html=1;" parent="1" vertex="1">
                    <mxGeometry x="200" y="720" width="80" height="80" as="geometry"/>
                </mxCell>
                <mxCell id="18" style="edgeStyle=none;html=1;" parent="1" source="15" target="17" edge="1">
                    <mxGeometry relative="1" as="geometry"/>
                </mxCell>
                <mxCell id="15" value="Invalid grade:" style="shape=parallelogram;perimeter=parallelogramPerimeter;whiteSpace=wrap;html=1;fixedSize=1;" parent="1" vertex="1">
                    <mxGeometry x="360" y="740" width="160" height="40" as="geometry"/>
                </mxCell>
                <mxCell id="17" value="fillipino" style="ellipse;whiteSpace=wrap;html=1;aspect=fixed;" parent="1" vertex="1">
                    <mxGeometry x="560" y="720" width="80" height="80" as="geometry"/>
                </mxCell>
                <mxCell id="31" style="edgeStyle=none;html=1;" parent="1" source="19" edge="1">
                    <mxGeometry relative="1" as="geometry">
                        <mxPoint x="240" y="600" as="targetPoint"/>
                    </mxGeometry>
                </mxCell>
                <mxCell id="19" value="fillipino" style="ellipse;whiteSpace=wrap;html=1;aspect=fixed;" parent="1" vertex="1">
                    <mxGeometry x="360" y="560" width="80" height="80" as="geometry"/>
                </mxCell>
                <mxCell id="132" style="edgeStyle=none;html=1;" edge="1" parent="1" source="34" target="131">
                    <mxGeometry relative="1" as="geometry"/>
                </mxCell>
                <mxCell id="34" value="English:" style="shape=parallelogram;perimeter=parallelogramPerimeter;whiteSpace=wrap;html=1;fixedSize=1;" parent="1" vertex="1">
                    <mxGeometry x="160" y="880" width="160" height="40" as="geometry"/>
                </mxCell>
                <mxCell id="35" style="edgeStyle=none;html=1;" parent="1" source="36" target="38" edge="1">
                    <mxGeometry relative="1" as="geometry"/>
                </mxCell>
                <mxCell id="36" value="eng &amp;lt; 0&lt;br&gt;||&lt;br&gt;eng &amp;gt; 100" style="rhombus;whiteSpace=wrap;html=1;" parent="1" vertex="1">
                    <mxGeometry x="1120" y="160" width="80" height="80" as="geometry"/>
                </mxCell>
                <mxCell id="37" style="edgeStyle=none;html=1;" parent="1" source="38" edge="1">
                    <mxGeometry relative="1" as="geometry">
                        <mxPoint x="1480" y="200" as="targetPoint"/>
                    </mxGeometry>
                </mxCell>
                <mxCell id="38" value="Invalid grade:" style="shape=parallelogram;perimeter=parallelogramPerimeter;whiteSpace=wrap;html=1;fixedSize=1;" parent="1" vertex="1">
                    <mxGeometry x="1280" y="180" width="160" height="40" as="geometry"/>
                </mxCell>
                <mxCell id="40" style="edgeStyle=none;html=1;" parent="1" edge="1">
                    <mxGeometry relative="1" as="geometry">
                        <mxPoint x="240" y="840" as="targetPoint"/>
                        <mxPoint x="359.9999999999983" y="840" as="sourcePoint"/>
                    </mxGeometry>
                </mxCell>
                <mxCell id="43" value="True" style="text;html=1;align=center;verticalAlign=middle;resizable=0;points=[];autosize=1;strokeColor=none;fillColor=none;" parent="1" vertex="1">
                    <mxGeometry x="280" y="730" width="50" height="30" as="geometry"/>
                </mxCell>
                <mxCell id="44" value="False" style="text;html=1;align=center;verticalAlign=middle;resizable=0;points=[];autosize=1;strokeColor=none;fillColor=none;" parent="1" vertex="1">
                    <mxGeometry x="190" y="800" width="50" height="30" as="geometry"/>
                </mxCell>
                <mxCell id="45" value="True" style="text;html=1;align=center;verticalAlign=middle;resizable=0;points=[];autosize=1;strokeColor=none;fillColor=none;" parent="1" vertex="1">
                    <mxGeometry x="1200" y="170" width="50" height="30" as="geometry"/>
                </mxCell>
                <mxCell id="58" style="edgeStyle=none;html=1;entryX=0.5;entryY=0;entryDx=0;entryDy=0;" parent="1" target="60" edge="1">
                    <mxGeometry relative="1" as="geometry">
                        <mxPoint x="1160" y="240" as="sourcePoint"/>
                    </mxGeometry>
                </mxCell>
                <mxCell id="59" style="edgeStyle=none;html=1;entryX=0.5;entryY=0;entryDx=0;entryDy=0;" parent="1" source="60" target="62" edge="1">
                    <mxGeometry relative="1" as="geometry"/>
                </mxCell>
                <mxCell id="60" value="Mathematics:" style="shape=parallelogram;perimeter=parallelogramPerimeter;whiteSpace=wrap;html=1;fixedSize=1;" parent="1" vertex="1">
                    <mxGeometry x="1080" y="320" width="160" height="40" as="geometry"/>
                </mxCell>
                <mxCell id="61" style="edgeStyle=none;html=1;" parent="1" source="62" target="64" edge="1">
                    <mxGeometry relative="1" as="geometry"/>
                </mxCell>
                <mxCell id="62" value="math &amp;lt; 0&lt;br&gt;||&lt;br&gt;math &amp;gt; 100" style="rhombus;whiteSpace=wrap;html=1;" parent="1" vertex="1">
                    <mxGeometry x="1120" y="400" width="80" height="80" as="geometry"/>
                </mxCell>
                <mxCell id="63" style="edgeStyle=none;html=1;" parent="1" source="64" target="65" edge="1">
                    <mxGeometry relative="1" as="geometry"/>
                </mxCell>
                <mxCell id="64" value="Invalid grade:" style="shape=parallelogram;perimeter=parallelogramPerimeter;whiteSpace=wrap;html=1;fixedSize=1;" parent="1" vertex="1">
                    <mxGeometry x="1280" y="420" width="160" height="40" as="geometry"/>
                </mxCell>
                <mxCell id="65" value="mathematics" style="ellipse;whiteSpace=wrap;html=1;aspect=fixed;" parent="1" vertex="1">
                    <mxGeometry x="1480" y="400" width="80" height="80" as="geometry"/>
                </mxCell>
                <mxCell id="66" style="edgeStyle=none;html=1;" parent="1" source="67" edge="1">
                    <mxGeometry relative="1" as="geometry">
                        <mxPoint x="1160" y="280" as="targetPoint"/>
                    </mxGeometry>
                </mxCell>
                <mxCell id="67" value="mathematics" style="ellipse;whiteSpace=wrap;html=1;aspect=fixed;" parent="1" vertex="1">
                    <mxGeometry x="1280" y="240" width="80" height="80" as="geometry"/>
                </mxCell>
                <mxCell id="68" value="False" style="text;html=1;align=center;verticalAlign=middle;resizable=0;points=[];autosize=1;strokeColor=none;fillColor=none;" parent="1" vertex="1">
                    <mxGeometry x="1110" y="240" width="50" height="30" as="geometry"/>
                </mxCell>
                <mxCell id="69" value="True" style="text;html=1;align=center;verticalAlign=middle;resizable=0;points=[];autosize=1;strokeColor=none;fillColor=none;" parent="1" vertex="1">
                    <mxGeometry x="1200" y="410" width="50" height="30" as="geometry"/>
                </mxCell>
                <mxCell id="70" style="edgeStyle=none;html=1;entryX=0.5;entryY=0;entryDx=0;entryDy=0;" parent="1" target="72" edge="1">
                    <mxGeometry relative="1" as="geometry">
                        <mxPoint x="1160" y="480" as="sourcePoint"/>
                    </mxGeometry>
                </mxCell>
                <mxCell id="71" style="edgeStyle=none;html=1;entryX=0.5;entryY=0;entryDx=0;entryDy=0;" parent="1" source="72" target="74" edge="1">
                    <mxGeometry relative="1" as="geometry"/>
                </mxCell>
                <mxCell id="72" value="Programming:" style="shape=parallelogram;perimeter=parallelogramPerimeter;whiteSpace=wrap;html=1;fixedSize=1;" parent="1" vertex="1">
                    <mxGeometry x="1080" y="560" width="160" height="40" as="geometry"/>
                </mxCell>
                <mxCell id="73" style="edgeStyle=none;html=1;" parent="1" source="74" target="76" edge="1">
                    <mxGeometry relative="1" as="geometry"/>
                </mxCell>
                <mxCell id="74" value="prog &amp;lt; 0&lt;br&gt;||&lt;br&gt;prog &amp;gt; 100" style="rhombus;whiteSpace=wrap;html=1;" parent="1" vertex="1">
                    <mxGeometry x="1120" y="640" width="80" height="80" as="geometry"/>
                </mxCell>
                <mxCell id="75" style="edgeStyle=none;html=1;" parent="1" source="76" target="77" edge="1">
                    <mxGeometry relative="1" as="geometry"/>
                </mxCell>
                <mxCell id="76" value="Invalid grade:" style="shape=parallelogram;perimeter=parallelogramPerimeter;whiteSpace=wrap;html=1;fixedSize=1;" parent="1" vertex="1">
                    <mxGeometry x="1280" y="660" width="160" height="40" as="geometry"/>
                </mxCell>
                <mxCell id="77" value="programming" style="ellipse;whiteSpace=wrap;html=1;aspect=fixed;" parent="1" vertex="1">
                    <mxGeometry x="1480" y="640" width="80" height="80" as="geometry"/>
                </mxCell>
                <mxCell id="78" style="edgeStyle=none;html=1;" parent="1" source="79" edge="1">
                    <mxGeometry relative="1" as="geometry">
                        <mxPoint x="1160" y="520" as="targetPoint"/>
                    </mxGeometry>
                </mxCell>
                <mxCell id="79" value="programming" style="ellipse;whiteSpace=wrap;html=1;aspect=fixed;" parent="1" vertex="1">
                    <mxGeometry x="1280" y="480" width="80" height="80" as="geometry"/>
                </mxCell>
                <mxCell id="80" value="False" style="text;html=1;align=center;verticalAlign=middle;resizable=0;points=[];autosize=1;strokeColor=none;fillColor=none;" parent="1" vertex="1">
                    <mxGeometry x="1110" y="480" width="50" height="30" as="geometry"/>
                </mxCell>
                <mxCell id="81" value="True" style="text;html=1;align=center;verticalAlign=middle;resizable=0;points=[];autosize=1;strokeColor=none;fillColor=none;" parent="1" vertex="1">
                    <mxGeometry x="1200" y="650" width="50" height="30" as="geometry"/>
                </mxCell>
                <mxCell id="82" style="edgeStyle=none;html=1;entryX=0.5;entryY=0;entryDx=0;entryDy=0;" parent="1" target="84" edge="1">
                    <mxGeometry relative="1" as="geometry">
                        <mxPoint x="1160" y="720" as="sourcePoint"/>
                    </mxGeometry>
                </mxCell>
                <mxCell id="83" style="edgeStyle=none;html=1;entryX=0.5;entryY=0;entryDx=0;entryDy=0;" parent="1" source="84" target="86" edge="1">
                    <mxGeometry relative="1" as="geometry"/>
                </mxCell>
                <mxCell id="84" value="Physical Education:" style="shape=parallelogram;perimeter=parallelogramPerimeter;whiteSpace=wrap;html=1;fixedSize=1;" parent="1" vertex="1">
                    <mxGeometry x="1080" y="800" width="160" height="40" as="geometry"/>
                </mxCell>
                <mxCell id="85" style="edgeStyle=none;html=1;" parent="1" source="86" target="88" edge="1">
                    <mxGeometry relative="1" as="geometry"/>
                </mxCell>
                <mxCell id="139" style="edgeStyle=none;html=1;exitX=0.5;exitY=1;exitDx=0;exitDy=0;" edge="1" parent="1" source="86" target="138">
                    <mxGeometry relative="1" as="geometry"/>
                </mxCell>
                <mxCell id="86" value="pe &amp;lt; 0&lt;br&gt;||&lt;br&gt;pe &amp;gt; 100" style="rhombus;whiteSpace=wrap;html=1;" parent="1" vertex="1">
                    <mxGeometry x="1120" y="880" width="80" height="80" as="geometry"/>
                </mxCell>
                <mxCell id="87" style="edgeStyle=none;html=1;" parent="1" source="88" target="89" edge="1">
                    <mxGeometry relative="1" as="geometry"/>
                </mxCell>
                <mxCell id="88" value="Physical Education:" style="shape=parallelogram;perimeter=parallelogramPerimeter;whiteSpace=wrap;html=1;fixedSize=1;" parent="1" vertex="1">
                    <mxGeometry x="1280" y="900" width="160" height="40" as="geometry"/>
                </mxCell>
                <mxCell id="89" value="physical_education" style="ellipse;whiteSpace=wrap;html=1;aspect=fixed;" parent="1" vertex="1">
                    <mxGeometry x="1480" y="880" width="80" height="80" as="geometry"/>
                </mxCell>
                <mxCell id="90" style="edgeStyle=none;html=1;" parent="1" source="91" edge="1">
                    <mxGeometry relative="1" as="geometry">
                        <mxPoint x="1160" y="760" as="targetPoint"/>
                    </mxGeometry>
                </mxCell>
                <mxCell id="91" value="physical_education" style="ellipse;whiteSpace=wrap;html=1;aspect=fixed;" parent="1" vertex="1">
                    <mxGeometry x="1280" y="720" width="80" height="80" as="geometry"/>
                </mxCell>
                <mxCell id="92" value="False" style="text;html=1;align=center;verticalAlign=middle;resizable=0;points=[];autosize=1;strokeColor=none;fillColor=none;" parent="1" vertex="1">
                    <mxGeometry x="1110" y="720" width="50" height="30" as="geometry"/>
                </mxCell>
                <mxCell id="93" value="True" style="text;html=1;align=center;verticalAlign=middle;resizable=0;points=[];autosize=1;strokeColor=none;fillColor=none;" parent="1" vertex="1">
                    <mxGeometry x="1200" y="890" width="50" height="30" as="geometry"/>
                </mxCell>
                <mxCell id="94" value="False" style="text;html=1;align=center;verticalAlign=middle;resizable=0;points=[];autosize=1;strokeColor=none;fillColor=none;" parent="1" vertex="1">
                    <mxGeometry x="1110" y="960" width="50" height="30" as="geometry"/>
                </mxCell>
                <mxCell id="98" style="edgeStyle=none;html=1;entryX=0.5;entryY=0;entryDx=0;entryDy=0;" parent="1" source="95" target="97" edge="1">
                    <mxGeometry relative="1" as="geometry"/>
                </mxCell>
                <mxCell id="95" value="int average = (fil + eng + math + prog + pe) / 5" style="shape=hexagon;perimeter=hexagonPerimeter2;whiteSpace=wrap;html=1;fixedSize=1;size=19.999999999999943;" parent="1" vertex="1">
                    <mxGeometry x="2040" y="160" width="160" height="80" as="geometry"/>
                </mxCell>
                <mxCell id="101" style="edgeStyle=none;html=1;entryX=0.5;entryY=0;entryDx=0;entryDy=0;" parent="1" source="97" target="100" edge="1">
                    <mxGeometry relative="1" as="geometry"/>
                </mxCell>
                <mxCell id="97" value="name + &quot;'s average is &quot; + average" style="shape=parallelogram;perimeter=parallelogramPerimeter;whiteSpace=wrap;html=1;fixedSize=1;" parent="1" vertex="1">
                    <mxGeometry x="2000" y="280" width="240" height="40" as="geometry"/>
                </mxCell>
                <mxCell id="109" style="edgeStyle=none;html=1;entryX=1;entryY=0.5;entryDx=0;entryDy=0;" parent="1" source="100" target="105" edge="1">
                    <mxGeometry relative="1" as="geometry"/>
                </mxCell>
                <mxCell id="110" style="edgeStyle=none;html=1;entryX=0;entryY=0.5;entryDx=0;entryDy=0;" parent="1" source="100" target="102" edge="1">
                    <mxGeometry relative="1" as="geometry"/>
                </mxCell>
                <mxCell id="100" value="average&lt;br&gt;&amp;gt;=&lt;br&gt;75" style="rhombus;whiteSpace=wrap;html=1;" parent="1" vertex="1">
                    <mxGeometry x="2080" y="360" width="80" height="80" as="geometry"/>
                </mxCell>
                <mxCell id="114" style="edgeStyle=none;html=1;entryX=1;entryY=0.5;entryDx=0;entryDy=0;" parent="1" source="102" target="112" edge="1">
                    <mxGeometry relative="1" as="geometry">
                        <Array as="points">
                            <mxPoint x="2320" y="500"/>
                        </Array>
                    </mxGeometry>
                </mxCell>
                <mxCell id="102" value="name + &quot; failed&quot;" style="shape=parallelogram;perimeter=parallelogramPerimeter;whiteSpace=wrap;html=1;fixedSize=1;" parent="1" vertex="1">
                    <mxGeometry x="2240" y="380" width="160" height="40" as="geometry"/>
                </mxCell>
                <mxCell id="113" style="edgeStyle=none;html=1;entryX=0;entryY=0.5;entryDx=0;entryDy=0;" parent="1" source="105" target="112" edge="1">
                    <mxGeometry relative="1" as="geometry">
                        <Array as="points">
                            <mxPoint x="1920" y="500"/>
                        </Array>
                    </mxGeometry>
                </mxCell>
                <mxCell id="105" value="name + &quot; passed&quot;" style="shape=parallelogram;perimeter=parallelogramPerimeter;whiteSpace=wrap;html=1;fixedSize=1;" parent="1" vertex="1">
                    <mxGeometry x="1840" y="380" width="160" height="40" as="geometry"/>
                </mxCell>
                <mxCell id="107" value="True" style="text;html=1;align=center;verticalAlign=middle;resizable=0;points=[];autosize=1;strokeColor=none;fillColor=none;" parent="1" vertex="1">
                    <mxGeometry x="2030" y="370" width="50" height="30" as="geometry"/>
                </mxCell>
                <mxCell id="108" value="False" style="text;html=1;align=center;verticalAlign=middle;resizable=0;points=[];autosize=1;strokeColor=none;fillColor=none;" parent="1" vertex="1">
                    <mxGeometry x="2160" y="370" width="50" height="30" as="geometry"/>
                </mxCell>
                <mxCell id="117" style="edgeStyle=none;html=1;entryX=0.5;entryY=0;entryDx=0;entryDy=0;" parent="1" source="112" target="116" edge="1">
                    <mxGeometry relative="1" as="geometry"/>
                </mxCell>
                <mxCell id="112" value="char choice;" style="shape=hexagon;perimeter=hexagonPerimeter2;whiteSpace=wrap;html=1;fixedSize=1;size=19.999999999999943;" parent="1" vertex="1">
                    <mxGeometry x="2045" y="480" width="150" height="40" as="geometry"/>
                </mxCell>
                <mxCell id="122" style="edgeStyle=none;html=1;entryX=0;entryY=0.5;entryDx=0;entryDy=0;" parent="1" source="115" edge="1">
                    <mxGeometry relative="1" as="geometry">
                        <mxPoint x="2240" y="680" as="targetPoint"/>
                    </mxGeometry>
                </mxCell>
                <mxCell id="129" style="edgeStyle=none;html=1;entryX=0.5;entryY=0;entryDx=0;entryDy=0;" edge="1" parent="1" source="115" target="128">
                    <mxGeometry relative="1" as="geometry"/>
                </mxCell>
                <mxCell id="115" value="choice == 'y' || choice == 'Y'" style="rhombus;whiteSpace=wrap;html=1;" parent="1" vertex="1">
                    <mxGeometry x="2080" y="640" width="80" height="80" as="geometry"/>
                </mxCell>
                <mxCell id="118" style="edgeStyle=none;html=1;entryX=0.5;entryY=0;entryDx=0;entryDy=0;" parent="1" source="116" target="115" edge="1">
                    <mxGeometry relative="1" as="geometry"/>
                </mxCell>
                <mxCell id="116" value="Do you want to enter another?:" style="shape=parallelogram;perimeter=parallelogramPerimeter;whiteSpace=wrap;html=1;fixedSize=1;" parent="1" vertex="1">
                    <mxGeometry x="2040" y="560" width="160" height="40" as="geometry"/>
                </mxCell>
                <mxCell id="125" style="edgeStyle=none;html=1;entryX=0.5;entryY=0;entryDx=0;entryDy=0;" edge="1" parent="1" source="123" target="124">
                    <mxGeometry relative="1" as="geometry"/>
                </mxCell>
                <mxCell id="123" value="string name;" style="shape=hexagon;perimeter=hexagonPerimeter2;whiteSpace=wrap;html=1;fixedSize=1;size=19.999999999999943;" vertex="1" parent="1">
                    <mxGeometry x="160" y="240" width="160" height="40" as="geometry"/>
                </mxCell>
                <mxCell id="127" style="edgeStyle=none;html=1;" edge="1" parent="1" source="124" target="5">
                    <mxGeometry relative="1" as="geometry"/>
                </mxCell>
                <mxCell id="124" value="Enter name:" style="shape=parallelogram;perimeter=parallelogramPerimeter;whiteSpace=wrap;html=1;fixedSize=1;" vertex="1" parent="1">
                    <mxGeometry x="160" y="320" width="160" height="40" as="geometry"/>
                </mxCell>
                <mxCell id="128" value="End" style="rounded=1;whiteSpace=wrap;html=1;arcSize=50;" vertex="1" parent="1">
                    <mxGeometry x="2080" y="760" width="80" height="40" as="geometry"/>
                </mxCell>
                <mxCell id="131" value="Page 2" style="shape=offPageConnector;whiteSpace=wrap;html=1;" vertex="1" parent="1">
                    <mxGeometry x="200" y="960" width="80" height="80" as="geometry"/>
                </mxCell>
                <mxCell id="136" style="edgeStyle=none;html=1;entryX=0.5;entryY=0;entryDx=0;entryDy=0;" edge="1" parent="1" source="135" target="36">
                    <mxGeometry relative="1" as="geometry"/>
                </mxCell>
                <mxCell id="135" value="Page 2" style="shape=offPageConnector;whiteSpace=wrap;html=1;" vertex="1" parent="1">
                    <mxGeometry x="1120" y="40" width="80" height="80" as="geometry"/>
                </mxCell>
                <mxCell id="138" value="Page 3" style="shape=offPageConnector;whiteSpace=wrap;html=1;" vertex="1" parent="1">
                    <mxGeometry x="1120" y="1000" width="80" height="80" as="geometry"/>
                </mxCell>
                <mxCell id="141" style="edgeStyle=none;html=1;entryX=0.5;entryY=0;entryDx=0;entryDy=0;" edge="1" parent="1" source="140" target="95">
                    <mxGeometry relative="1" as="geometry"/>
                </mxCell>
                <mxCell id="140" value="Page 3" style="shape=offPageConnector;whiteSpace=wrap;html=1;" vertex="1" parent="1">
                    <mxGeometry x="2080" y="40" width="80" height="80" as="geometry"/>
                </mxCell>
                <mxCell id="143" value="True" style="text;html=1;align=center;verticalAlign=middle;resizable=0;points=[];autosize=1;strokeColor=none;fillColor=none;" vertex="1" parent="1">
                    <mxGeometry x="2160" y="650" width="50" height="30" as="geometry"/>
                </mxCell>
                <mxCell id="144" value="False" style="text;html=1;align=center;verticalAlign=middle;resizable=0;points=[];autosize=1;strokeColor=none;fillColor=none;" vertex="1" parent="1">
                    <mxGeometry x="2070" y="720" width="50" height="30" as="geometry"/>
                </mxCell>
                <mxCell id="145" value="beggining" style="shape=offPageConnector;whiteSpace=wrap;html=1;" vertex="1" parent="1">
                    <mxGeometry x="2240" y="650" width="80" height="80" as="geometry"/>
                </mxCell>
                <mxCell id="153" style="edgeStyle=none;html=1;" edge="1" parent="1" source="147">
                    <mxGeometry relative="1" as="geometry">
                        <mxPoint x="240" y="200.00000000000006" as="targetPoint"/>
                    </mxGeometry>
                </mxCell>
                <mxCell id="147" value="beggining" style="shape=offPageConnector;whiteSpace=wrap;html=1;" vertex="1" parent="1">
                    <mxGeometry x="400" y="160" width="80" height="80" as="geometry"/>
                </mxCell>
                <mxCell id="151" value="english" style="shape=offPageConnector;whiteSpace=wrap;html=1;" vertex="1" parent="1">
                    <mxGeometry x="360" y="800" width="80" height="80" as="geometry"/>
                </mxCell>
                <mxCell id="152" value="english" style="shape=offPageConnector;whiteSpace=wrap;html=1;" vertex="1" parent="1">
                    <mxGeometry x="1480" y="160" width="80" height="80" as="geometry"/>
                </mxCell>
            </root>
        </mxGraphModel>
    </diagram>
</mxfile>